<?xml version="1.0" standalone="no"?>
<!DOCTYPE svg PUBLIC "-//W3C//DTD SVG 20010904//EN"
 "http://www.w3.org/TR/2001/REC-SVG-20010904/DTD/svg10.dtd">
<svg version="1.0" xmlns="http://www.w3.org/2000/svg"
 width="884.000000pt" height="753.000000pt" viewBox="0 0 884.000000 753.000000"
 preserveAspectRatio="xMidYMid meet">

<g transform="translate(0.000000,753.000000) scale(0.100000,-0.100000)"
fill="#000000" stroke="none">
<path d="M3940 6333 c-310 -11 -781 -42 -792 -52 -7 -7 -32 -223 -48 -416 -10
-125 -30 -518 -26 -522 1 -1 30 11 63 27 74 34 65 -12 92 454 11 186 22 341
24 343 6 5 590 42 796 49 l179 7 21 54 c12 30 21 57 21 59 0 4 -189 2 -330 -3z"/>
<path d="M4730 6330 c0 -6 7 -36 15 -64 l15 -53 233 -12 c230 -12 232 -12 282
9 28 12 90 37 139 55 l90 32 -65 7 c-99 10 -346 24 -536 32 -134 5 -173 4
-173 -6z"/>
<path d="M5587 6097 l-57 -122 15 -250 c8 -137 15 -264 15 -281 0 -29 4 -33
59 -53 32 -11 62 -21 66 -21 10 0 0 300 -21 610 -9 129 -17 236 -18 237 -1 1
-27 -53 -59 -120z"/>
<path d="M3074 4849 c4 -129 11 -313 17 -409 10 -180 49 -642 54 -648 20 -21
1215 -79 1215 -59 0 3 -9 30 -21 60 l-21 54 -166 7 c-485 19 -891 42 -899 50
-5 5 -43 617 -53 861 -6 149 -13 275 -15 281 -2 6 -21 15 -42 18 -21 4 -47 10
-57 13 -18 5 -19 -2 -12 -228z"/>
<path d="M5665 5075 c-5 -2 -28 -9 -51 -14 l-41 -11 -7 -227 c-12 -429 -38
-908 -48 -918 -5 -5 -711 -45 -794 -45 l-80 0 -17 -53 c-9 -30 -17 -57 -17
-60 0 -26 1013 25 1029 52 8 12 22 144 41 386 6 66 13 294 17 508 6 403 7 396
-32 382z"/>
<path d="M5147 3064 c-21 -36 -36 -68 -33 -71 5 -6 104 76 140 116 l19 21 -44
0 c-44 0 -44 -1 -82 -66z"/>
<path d="M3327 2909 c-97 -16 -187 -93 -229 -198 -19 -46 -23 -76 -23 -166 0
-105 2 -114 33 -177 20 -40 49 -81 74 -103 69 -58 180 -80 270 -53 46 13 117
73 149 124 24 40 17 61 -8 23 -9 -13 -34 -41 -55 -61 -106 -104 -275 -62 -338
84 -55 127 -30 353 49 442 50 57 166 74 233 33 45 -27 85 -78 100 -129 6 -21
14 -38 18 -38 7 0 3 142 -6 200 l-6 35 -14 -28 c-17 -32 -32 -33 -82 -8 -47
23 -104 30 -165 20z"/>
<path d="M5029 2907 c-160 -60 -245 -221 -218 -413 12 -88 38 -143 94 -203 63
-67 128 -94 226 -94 97 -1 167 31 233 104 65 72 89 142 89 259 0 115 -23 184
-84 254 -67 76 -117 99 -218 103 -55 2 -99 -2 -122 -10z m163 -27 c50 -14 109
-83 131 -152 24 -78 32 -192 18 -274 -25 -142 -101 -224 -208 -224 -60 0 -95
15 -135 57 -64 68 -99 223 -78 354 29 193 127 279 272 239z"/>
<path d="M6536 2894 c-211 -77 -277 -424 -116 -608 50 -57 102 -79 195 -84 73
-4 85 -1 135 25 40 21 66 44 94 86 22 31 36 60 32 64 -4 4 -12 0 -18 -10 -81
-145 -256 -169 -359 -49 -46 53 -59 96 -66 207 -14 236 95 382 262 351 50 -10
119 -75 141 -134 28 -75 31 -69 26 40 -5 116 -13 144 -31 110 -14 -27 -27 -27
-82 -2 -53 24 -155 26 -213 4z"/>
<path d="M7151 2878 c-4 -13 -72 -194 -150 -403 -78 -209 -152 -398 -164 -420
-13 -24 -36 -46 -55 -54 -17 -8 -32 -18 -32 -23 0 -4 59 -8 130 -8 128 0 169
11 89 24 -94 15 -97 32 -39 195 60 168 39 152 197 149 l136 -3 44 -130 c61
-182 58 -199 -31 -211 -100 -14 -37 -24 149 -24 107 0 195 4 195 8 0 4 -20 13
-44 20 -30 8 -53 22 -69 44 -14 18 -92 217 -175 443 -82 225 -154 411 -161
413 -6 2 -15 -7 -20 -20z m32 -330 c31 -90 57 -166 57 -170 0 -5 -54 -8 -121
-8 -93 0 -120 3 -117 13 3 6 29 83 59 170 29 86 56 157 59 157 3 0 31 -73 63
-162z"/>
<path d="M1230 2880 c0 -5 15 -10 34 -10 85 0 96 -48 96 -411 0 -309 6 -337
84 -416 66 -66 134 -88 247 -80 124 8 208 57 255 148 33 66 44 179 44 462 0
290 3 297 114 297 51 0 86 -15 113 -50 9 -11 12 -85 13 -270 0 -285 -4 -303
-58 -308 -17 -2 -32 -7 -32 -13 0 -5 45 -9 100 -9 60 0 100 4 100 10 0 6 -13
10 -30 10 -57 0 -61 17 -58 300 l3 253 208 -286 c114 -158 212 -287 217 -287
6 0 10 119 10 314 0 358 -5 340 87 340 46 1 58 -3 74 -23 19 -23 20 -39 17
-303 -3 -263 -4 -280 -22 -294 -11 -8 -32 -14 -48 -14 -15 0 -28 -4 -28 -10 0
-6 55 -10 145 -10 90 0 145 4 145 10 0 6 -13 10 -30 10 -17 0 -39 9 -50 20
-19 19 -20 33 -20 294 0 251 2 276 18 296 13 16 29 23 50 22 18 0 32 4 32 9 0
5 -99 9 -242 8 -202 0 -237 -2 -208 -12 57 -19 61 -39 58 -273 l-3 -208 -176
245 -175 244 -237 3 c-156 1 -237 -1 -237 -8 0 -5 13 -10 29 -10 17 0 42 -10
58 -24 l28 -24 3 -242 c4 -252 -8 -422 -32 -468 -8 -15 -29 -41 -48 -58 -119
-113 -299 -90 -362 45 -20 44 -21 64 -24 382 -4 382 -5 375 76 386 96 13 30
23 -148 23 -120 0 -190 -4 -190 -10z"/>
<path d="M3897 2883 c-3 -5 -55 -138 -116 -296 -113 -294 -133 -337 -157 -337
-7 0 -16 -4 -19 -10 -4 -6 27 -10 87 -9 88 0 91 1 53 13 -53 15 -55 37 -13
151 l34 90 105 3 104 3 33 -95 c42 -117 40 -137 -13 -152 -35 -11 -23 -12 105
-12 114 0 138 2 115 10 -16 6 -40 19 -52 30 -13 12 -63 132 -133 319 -62 164
-116 299 -121 299 -4 0 -10 -3 -12 -7z m21 -241 c23 -64 42 -120 42 -125 0 -8
-164 -10 -172 -1 -7 6 74 244 82 244 3 0 24 -53 48 -118z"/>
<path d="M4150 2831 c0 -32 -3 -73 -6 -90 -12 -58 11 -31 26 31 20 83 41 97
145 101 l80 2 0 -298 0 -299 -24 -19 c-13 -10 -36 -19 -52 -19 -16 0 -29 -4
-29 -10 0 -6 58 -10 155 -10 97 0 155 4 155 10 0 6 -13 10 -29 10 -16 0 -39 9
-52 19 l-24 19 0 299 0 298 77 -2 c42 -1 86 -7 97 -13 24 -12 55 -69 66 -117
13 -62 20 -33 13 55 -3 48 -7 88 -7 90 -1 1 -134 2 -296 2 l-295 0 0 -59z"/>
<path d="M5490 2877 c58 -20 60 -32 58 -335 -3 -258 -4 -274 -22 -288 -11 -8
-30 -14 -43 -14 -13 0 -23 -4 -23 -10 0 -6 95 -10 265 -10 l264 0 6 33 c9 49
1 188 -9 159 -20 -54 -53 -107 -79 -126 -23 -17 -47 -21 -130 -24 -152 -5
-141 -25 -145 272 -4 317 -1 329 93 349 11 3 -45 5 -125 5 -125 1 -140 -1
-110 -11z"/>
<path d="M6070 2880 c71 -17 71 -20 68 -332 -3 -263 -4 -280 -22 -294 -11 -8
-32 -14 -48 -14 -15 0 -28 -4 -28 -10 0 -6 55 -10 145 -10 90 0 145 4 145 10
0 6 -13 10 -30 10 -17 0 -39 9 -50 20 -19 19 -20 33 -20 294 0 306 1 309 70
326 23 5 -16 8 -115 8 -99 0 -138 -3 -115 -8z"/>
<path d="M2837 1854 l-4 -25 23 22 c29 27 29 29 5 29 -12 0 -20 -9 -24 -26z"/>
<path d="M6707 1854 l-4 -25 23 22 c29 27 29 29 5 29 -12 0 -20 -9 -24 -26z"/>
<path d="M1244 1797 c16 -12 18 -26 15 -110 -4 -92 -3 -97 16 -97 18 0 20 5
17 55 -4 52 -3 55 20 55 13 0 29 -5 36 -12 9 -9 12 -8 12 8 0 17 -5 19 -35 16
l-35 -4 0 46 c0 46 0 46 34 46 19 0 42 -7 50 -16 15 -14 16 -14 16 5 0 20 -6
21 -82 21 -70 0 -79 -2 -64 -13z"/>
<path d="M1426 1802 c7 -4 13 -44 15 -95 4 -79 7 -91 28 -108 36 -29 109 -21
133 15 4 6 8 46 8 88 0 56 4 81 16 92 14 15 12 16 -18 15 -18 0 -27 -3 -20 -6
13 -5 17 -159 4 -179 -27 -41 -96 -40 -112 2 -14 36 -12 158 2 172 9 9 3 12
-27 12 -22 0 -35 -4 -29 -8z"/>
<path d="M1668 1799 c23 -9 23 -12 20 -109 -2 -63 1 -100 7 -100 6 0 9 31 7
80 -3 47 0 80 5 80 6 0 41 -39 79 -86 l69 -86 3 108 c2 71 7 111 15 116 7 4
-3 8 -23 8 -29 -1 -32 -2 -17 -11 14 -8 17 -24 17 -79 0 -39 -3 -70 -7 -70 -5
1 -37 37 -72 80 -55 70 -67 80 -95 79 -29 0 -30 -1 -8 -10z"/>
<path d="M1925 1793 c14 -13 16 -33 13 -110 l-3 -93 29 0 c27 0 28 1 12 13
-14 10 -16 26 -14 102 l3 90 33 3 c45 5 92 -42 92 -92 0 -50 -20 -87 -55 -102
l-30 -13 27 -1 c17 0 40 11 60 28 26 24 31 36 31 73 0 85 -43 119 -153 119
-57 0 -60 -1 -45 -17z"/>
<path d="M2240 1765 c-12 -27 -35 -78 -50 -112 -19 -42 -25 -63 -17 -63 7 0
17 15 22 33 9 29 14 32 56 35 41 3 47 0 57 -23 7 -15 10 -31 7 -36 -4 -5 5 -9
19 -9 l25 0 -35 83 c-20 45 -42 96 -49 112 l-13 30 -22 -50z m49 -87 c1 -5
-15 -8 -34 -8 -40 0 -41 3 -19 56 l17 39 18 -40 c9 -22 18 -43 18 -47z"/>
<path d="M2439 1782 c-25 -23 -33 -38 -36 -79 -5 -45 -2 -54 23 -82 21 -23 41
-34 70 -38 36 -5 45 -2 75 27 l34 32 -33 -26 c-39 -30 -52 -32 -92 -11 -69 36
-59 165 15 196 19 7 19 8 -2 8 -13 1 -37 -12 -54 -27z"/>
<path d="M2536 1800 c12 -5 29 -19 38 -32 l16 -22 0 29 c0 28 -3 30 -38 32
-29 1 -32 -1 -16 -7z"/>
<path d="M2638 1801 c10 -6 13 -34 10 -110 -3 -95 -2 -101 17 -101 19 0 20 6
17 96 -2 63 1 100 9 110 10 12 5 14 -27 14 -25 0 -34 -3 -26 -9z"/>
<path d="M2784 1792 c-54 -43 -60 -123 -15 -174 25 -28 36 -33 76 -33 40 0 51
5 76 33 24 27 29 41 29 83 0 43 -5 55 -29 80 -24 23 -38 29 -73 29 -26 0 -52
-7 -64 -18z m110 -11 c20 -22 32 -88 22 -126 -9 -35 -41 -65 -69 -65 -41 0
-71 43 -71 103 -1 70 22 107 68 107 20 0 40 -8 50 -19z"/>
<path d="M2988 1794 c22 -15 23 -22 20 -110 -2 -58 1 -94 7 -94 6 0 9 31 7 80
-2 44 0 80 5 80 4 0 37 -36 73 -81 62 -77 65 -80 68 -53 2 16 -1 30 -6 32 -5
1 -38 39 -72 82 -54 69 -67 80 -94 80 l-30 0 22 -16z"/>
<path d="M3148 1803 c6 -2 12 -11 12 -19 0 -8 5 -14 10 -14 6 0 10 6 10 14 0
8 6 17 13 19 6 3 -4 5 -23 5 -19 0 -29 -2 -22 -5z"/>
<path d="M3324 1794 c12 -11 16 -36 16 -93 0 -100 11 -116 80 -116 58 0 81 19
79 64 l-2 26 -4 -27 c-5 -31 -18 -44 -55 -53 -21 -5 -33 -1 -52 19 -23 22 -26
33 -26 100 0 61 3 77 18 85 13 8 8 10 -26 11 -39 0 -42 -1 -28 -16z"/>
<path d="M3478 1803 c6 -2 12 -11 12 -19 0 -8 5 -14 10 -14 6 0 10 6 10 14 0
8 6 17 13 19 6 3 -4 5 -23 5 -19 0 -29 -2 -22 -5z"/>
<path d="M3568 1794 c19 -13 22 -24 22 -90 0 -42 -5 -84 -10 -95 -9 -15 -7
-19 7 -19 16 0 18 9 15 82 -4 95 -10 97 87 -20 l61 -74 0 110 c0 79 4 112 13
115 6 3 -1 6 -17 6 -23 1 -26 -2 -17 -13 7 -9 11 -41 9 -83 l-3 -68 -68 83
c-54 65 -74 82 -95 82 l-26 0 22 -16z"/>
<path d="M3819 1796 c8 -10 11 -47 9 -110 -3 -90 -2 -96 17 -96 19 0 20 6 17
101 -3 76 0 104 10 110 8 6 -1 9 -26 9 -32 0 -37 -2 -27 -14z"/>
<path d="M3921 1798 c9 -7 36 -59 60 -115 50 -117 43 -119 99 23 17 43 39 85
47 92 15 10 12 12 -16 12 -26 0 -31 -3 -23 -12 11 -14 -35 -145 -52 -148 -5
-1 -23 31 -39 70 -26 60 -28 73 -16 81 9 6 0 9 -30 9 -37 0 -42 -2 -30 -12z"/>
<path d="M4174 1797 c16 -12 18 -26 15 -110 l-4 -97 29 0 c27 0 28 1 12 13
-13 9 -17 23 -14 52 3 40 3 40 46 39 24 0 42 4 42 10 0 7 -17 10 -46 8 l-45
-4 3 43 c3 44 3 44 45 47 33 2 44 -1 58 -20 13 -17 16 -18 11 -5 -3 10 -6 23
-6 28 0 5 -37 9 -82 9 -70 0 -79 -2 -64 -13z"/>
<path d="M4378 1801 c10 -6 13 -34 10 -110 -3 -95 -2 -101 17 -101 18 0 20 6
17 50 -5 66 14 66 62 0 23 -32 43 -50 57 -50 18 0 15 6 -22 50 -23 28 -40 52
-38 54 2 2 14 9 27 15 32 17 27 70 -8 88 -28 14 -143 18 -122 4z m108 -22 c17
-19 17 -23 3 -47 -9 -17 -25 -28 -42 -30 -26 -3 -27 -1 -27 41 0 24 3 47 7 50
13 13 40 7 59 -14z"/>
<path d="M4616 1791 c-29 -32 -14 -66 49 -107 59 -37 70 -65 34 -84 -30 -16
-66 -4 -83 28 l-15 27 -1 -35 c0 -34 1 -35 43 -37 55 -3 96 14 103 42 8 32
-10 62 -49 81 -54 28 -78 54 -66 75 14 27 64 25 83 -3 l16 -22 0 24 c0 23 -4
25 -48 28 -38 2 -52 -2 -66 -17z"/>
<path d="M4799 1796 c8 -10 11 -47 9 -110 -3 -90 -2 -96 17 -96 19 0 20 6 17
101 -3 76 0 104 10 110 8 6 -1 9 -26 9 -32 0 -37 -2 -27 -14z"/>
<path d="M4890 1783 l0 -27 16 22 c9 13 26 22 40 22 l25 0 -3 -105 c-3 -99 -2
-105 17 -105 19 0 20 6 17 105 l-3 105 25 0 c14 0 31 -9 40 -22 16 -23 21 -13
10 16 -5 13 -23 16 -95 16 l-89 0 0 -27z"/>
<path d="M5159 1764 c-12 -27 -34 -77 -50 -111 -20 -45 -24 -63 -14 -63 7 0
16 16 19 35 7 34 8 35 55 35 45 0 50 -2 59 -29 6 -16 8 -32 5 -35 -4 -3 5 -6
19 -6 l26 0 -45 108 c-25 59 -47 109 -49 111 -2 2 -13 -18 -25 -45z m47 -91
c-2 -2 -20 -3 -39 -1 l-34 3 20 45 19 45 19 -44 c11 -24 18 -46 15 -48z"/>
<path d="M5330 1800 c19 -12 27 -158 11 -189 -10 -19 -9 -21 12 -21 23 0 24 3
19 50 -4 40 -2 50 11 50 8 0 32 -22 52 -50 22 -30 44 -50 56 -50 17 0 13 8
-21 51 l-41 52 23 11 c15 8 24 22 26 43 4 44 -26 63 -103 63 -41 0 -55 -3 -45
-10z m102 -17 c10 -9 18 -23 18 -31 0 -24 -31 -52 -57 -52 -21 0 -23 5 -23 43
0 24 3 47 7 50 11 12 36 8 55 -10z"/>
<path d="M5558 1801 c10 -6 13 -34 10 -110 -3 -95 -2 -101 17 -101 19 0 20 6
17 96 -2 63 1 100 9 110 10 12 5 14 -27 14 -25 0 -34 -3 -26 -9z"/>
<path d="M5747 1779 c-8 -19 -27 -63 -42 -99 -15 -36 -32 -71 -37 -77 -8 -10
-5 -13 11 -13 12 0 20 4 17 9 -4 5 -2 21 4 35 8 23 15 26 55 26 40 0 47 -3 55
-26 6 -14 8 -30 4 -35 -3 -5 9 -9 26 -9 29 0 30 1 16 23 -8 12 -29 58 -47 102
-18 44 -36 84 -40 89 -4 5 -14 -7 -22 -25z m43 -96 c0 -8 -13 -13 -35 -13 -19
0 -35 2 -35 5 0 2 7 23 17 46 l16 42 18 -34 c10 -19 18 -40 19 -46z"/>
<path d="M6024 1799 c-30 -15 -54 -61 -54 -104 0 -102 102 -151 172 -84 l33
31 -33 -26 c-37 -29 -48 -31 -87 -16 -34 13 -58 70 -50 119 8 44 24 67 56 80
21 8 21 10 4 10 -11 0 -29 -5 -41 -10z"/>
<path d="M6106 1800 c12 -5 29 -19 38 -32 l16 -22 0 29 c0 28 -3 30 -38 32
-29 1 -32 -1 -16 -7z"/>
<path d="M6279 1764 c-12 -27 -34 -77 -50 -111 -18 -41 -23 -63 -15 -63 6 0
16 15 21 33 9 29 14 32 56 35 44 3 47 1 57 -27 6 -16 8 -32 5 -35 -4 -3 5 -6
19 -6 l26 0 -45 108 c-25 59 -47 109 -49 111 -2 2 -13 -18 -25 -45z m50 -86
c1 -5 -15 -8 -34 -8 -40 0 -41 3 -19 56 l17 39 18 -40 c9 -22 18 -43 18 -47z"/>
<path d="M6400 1789 c0 -19 1 -19 16 -5 8 9 27 16 41 16 l25 0 -4 -105 c-3
-104 -3 -105 20 -105 19 0 21 3 12 19 -5 11 -10 56 -10 101 0 89 9 103 56 82
19 -10 24 -9 24 3 0 12 -17 15 -90 15 -84 0 -90 -1 -90 -21z"/>
<path d="M6654 1792 c-81 -65 -48 -195 53 -209 39 -5 46 -2 78 30 31 31 35 41
35 87 0 44 -4 56 -29 81 -24 23 -38 29 -73 29 -26 0 -52 -7 -64 -18z m110 -11
c20 -22 32 -88 22 -126 -9 -35 -41 -65 -69 -65 -41 0 -71 43 -71 103 -1 70 22
107 68 107 20 0 40 -8 50 -19z"/>
<path d="M6868 1801 c10 -6 13 -34 10 -110 l-3 -102 75 3 c66 3 75 5 79 23 3
19 3 19 -16 3 -12 -11 -36 -18 -61 -18 l-42 0 0 95 c0 79 3 96 18 104 13 8 7
10 -28 11 -28 0 -40 -3 -32 -9z"/>
<path d="M7074 1797 c15 -11 17 -26 14 -110 -3 -91 -2 -97 17 -97 19 0 20 6
17 101 -3 76 0 104 10 110 8 6 -4 9 -31 9 -39 0 -43 -2 -27 -13z"/>
<path d="M7217 1790 c-52 -41 -56 -140 -8 -184 28 -25 83 -31 119 -12 18 9 32
19 32 22 0 2 -13 -2 -30 -11 -42 -22 -58 -19 -92 15 -28 28 -30 35 -26 85 6
66 28 95 73 95 34 0 55 -13 75 -45 9 -17 11 -17 6 -2 -3 10 -6 26 -6 35 0 28
-108 29 -143 2z"/>
<path d="M7471 1733 c-18 -43 -41 -93 -52 -110 -18 -33 -18 -33 2 -33 11 0 18
4 14 9 -3 5 0 21 7 36 10 23 16 26 57 23 42 -3 47 -6 56 -35 7 -26 15 -33 33
-33 18 0 22 3 14 13 -6 6 -27 53 -47 102 -20 50 -40 94 -44 98 -5 4 -22 -27
-40 -70z m44 -9 c21 -51 20 -54 -21 -54 -30 0 -35 3 -29 18 4 9 12 29 17 45 5
15 12 27 14 27 2 0 11 -16 19 -36z"/>
<path d="M4320 1616 c-6 -8 -21 -17 -33 -19 -16 -3 -13 -5 9 -6 24 -1 33 4 37
19 6 24 4 25 -13 6z"/>
<path d="M4335 1401 c-87 -15 -135 -61 -135 -129 0 -47 29 -89 76 -108 39 -16
163 -18 216 -4 33 10 37 14 40 48 2 30 7 38 26 40 12 2 20 8 17 13 -8 12 -175
12 -175 0 0 -5 10 -11 23 -13 17 -2 23 -11 25 -36 3 -27 -1 -34 -25 -43 -68
-25 -127 27 -127 112 0 45 4 55 32 80 19 17 44 29 60 29 35 0 88 -33 97 -59
12 -39 35 -25 35 23 l0 43 -37 0 c-21 -1 -54 2 -73 5 -19 3 -53 2 -75 -1z"/>
<path d="M2060 1391 c0 -5 10 -11 23 -13 21 -3 22 -7 22 -103 0 -96 -1 -100
-22 -103 -13 -2 -23 -8 -23 -13 0 -5 66 -9 154 -9 l153 0 6 37 c4 20 4 39 2
42 -3 2 -20 -10 -38 -27 -28 -28 -40 -32 -85 -32 -62 0 -64 5 -60 125 3 74 5
80 26 83 12 2 22 8 22 13 0 5 -40 9 -90 9 -49 0 -90 -4 -90 -9z"/>
<path d="M2390 1391 c0 -5 10 -11 23 -13 21 -3 22 -8 25 -89 2 -77 5 -89 28
-110 21 -20 38 -24 103 -27 79 -4 128 10 148 40 4 7 10 51 13 98 4 75 7 85 25
88 11 2 24 8 30 13 5 5 -22 9 -68 9 -45 0 -77 -4 -77 -10 0 -5 9 -10 20 -10
28 0 40 -30 40 -100 0 -51 -4 -65 -25 -85 -34 -35 -96 -35 -131 0 -23 23 -25
31 -22 102 3 72 5 78 26 81 12 2 22 8 22 13 0 5 -40 9 -90 9 -49 0 -90 -4 -90
-9z"/>
<path d="M2800 1391 c0 -5 10 -11 23 -13 21 -3 22 -8 25 -100 3 -97 3 -97 -23
-104 -47 -12 -25 -24 45 -24 70 0 93 12 45 24 -31 8 -37 31 -33 121 l3 70 53
-102 c37 -73 57 -103 70 -103 13 0 35 31 72 102 l55 102 3 -84 c3 -97 0 -110
-28 -110 -11 0 -20 -4 -20 -10 0 -6 37 -10 90 -10 50 0 90 4 90 9 0 5 -10 11
-22 13 -22 3 -23 7 -23 103 0 96 1 100 23 103 12 2 22 8 22 13 0 5 -33 9 -72
9 l-73 0 -40 -75 c-22 -41 -42 -75 -45 -75 -3 0 -23 34 -45 75 l-40 75 -77 0
c-43 0 -78 -4 -78 -9z"/>
<path d="M3310 1391 c0 -5 10 -11 23 -13 21 -3 22 -7 22 -103 0 -96 -1 -100
-22 -103 -13 -2 -23 -8 -23 -13 0 -5 68 -9 160 -9 l160 0 0 40 c0 22 -3 40 -6
40 -3 0 -19 -14 -34 -31 -27 -28 -33 -30 -87 -27 l-58 3 -3 48 -3 47 35 0 c25
0 40 -6 48 -20 23 -36 38 -24 38 30 0 54 -7 61 -35 30 -11 -12 -31 -20 -52
-20 -33 0 -33 1 -33 45 l0 45 53 0 c41 0 58 -5 72 -20 27 -29 45 -25 45 10 l0
30 -150 0 c-86 0 -150 -4 -150 -9z"/>
<path d="M3650 1390 c0 -5 8 -10 18 -10 33 0 42 -21 42 -105 0 -84 -9 -105
-42 -105 -10 0 -18 -4 -18 -10 0 -6 32 -10 75 -10 43 0 75 4 75 10 0 6 -8 10
-18 10 -32 0 -42 22 -42 92 0 37 3 68 6 68 3 0 50 -40 103 -90 60 -55 106 -90
120 -90 20 0 21 4 21 96 0 103 9 134 40 134 11 0 20 5 20 10 0 6 -32 10 -75
10 -41 0 -75 -2 -75 -6 0 -3 14 -10 30 -15 29 -11 30 -13 30 -76 l0 -65 -80
72 c-44 40 -83 76 -86 81 -7 13 -144 11 -144 -1z"/>
<path d="M4590 1395 c0 -3 11 -10 25 -15 24 -9 25 -12 25 -110 0 -92 -1 -100
-19 -100 -11 0 -23 -4 -26 -10 -4 -7 50 -10 153 -10 173 0 172 0 172 56 0 32
-10 30 -45 -6 -27 -28 -34 -31 -85 -28 l-55 3 -3 48 -3 47 35 0 c25 0 40 -6
48 -20 20 -32 28 -24 28 30 0 54 -8 62 -28 30 -8 -14 -23 -20 -47 -20 -35 0
-35 0 -35 45 l0 45 49 0 c33 0 56 -6 74 -20 35 -28 47 -25 47 10 l0 30 -155 0
c-85 0 -155 -2 -155 -5z"/>
<path d="M4940 1390 c0 -5 6 -10 14 -10 34 0 46 -30 46 -109 0 -79 -9 -101
-42 -101 -10 0 -18 -4 -18 -10 0 -6 32 -10 76 -10 47 0 73 4 69 10 -3 6 -12
10 -19 10 -27 0 -37 28 -34 95 l3 68 100 -91 c62 -57 108 -92 122 -92 22 0 22
4 25 107 3 100 5 108 26 119 42 21 36 24 -41 24 -45 0 -77 -4 -77 -10 0 -5 8
-10 19 -10 31 0 42 -24 39 -84 l-3 -55 -89 80 -89 79 -63 0 c-36 0 -64 -4 -64
-10z"/>
<path d="M5350 1365 c0 -42 5 -43 36 -10 15 16 34 25 54 25 l31 0 -3 -102 c-3
-98 -4 -103 -25 -106 -13 -2 -23 -8 -23 -13 0 -5 43 -9 96 -9 61 0 93 4 89 10
-3 6 -14 10 -25 10 -25 0 -30 19 -30 121 l0 89 34 0 c25 0 40 -7 54 -25 28
-35 42 -31 42 10 l0 35 -165 0 -165 0 0 -35z"/>
<path d="M5696 1391 c5 -5 18 -11 29 -13 18 -3 20 -11 20 -103 0 -92 -2 -100
-20 -103 -11 -2 -24 -8 -29 -13 -6 -5 29 -9 87 -9 53 0 97 4 97 9 0 5 -10 11
-22 13 -22 3 -23 7 -23 103 0 96 1 100 23 103 12 2 22 8 22 13 0 5 -44 9 -97
9 -58 0 -93 -4 -87 -9z"/>
<path d="M5910 1391 c0 -5 10 -11 23 -13 21 -3 22 -8 25 -89 2 -77 5 -89 28
-110 21 -20 38 -24 103 -27 79 -4 128 10 148 40 4 7 10 49 13 93 4 70 8 81 28
91 42 21 36 24 -41 24 -45 0 -77 -4 -77 -10 0 -5 8 -10 18 -10 32 0 42 -22 42
-92 0 -60 -3 -72 -25 -93 -34 -35 -96 -35 -131 0 -23 23 -25 31 -22 102 3 72
5 78 26 81 12 2 22 8 22 13 0 5 -40 9 -90 9 -49 0 -90 -4 -90 -9z"/>
<path d="M6320 1391 c0 -5 10 -11 23 -13 21 -3 22 -7 22 -103 0 -96 -1 -100
-22 -103 -51 -7 -19 -22 47 -22 69 0 93 12 45 24 -29 7 -38 42 -33 131 l3 60
53 -102 c39 -77 57 -103 71 -103 14 0 34 27 73 101 l53 100 3 -82 c3 -96 0
-109 -28 -109 -11 0 -20 -4 -20 -10 0 -6 37 -10 90 -10 50 0 90 4 90 9 0 5
-10 11 -22 13 -22 3 -23 7 -23 103 0 96 1 100 23 103 12 2 22 8 22 13 0 5 -33
9 -72 9 l-73 0 -39 -75 c-22 -41 -42 -75 -45 -75 -3 0 -23 34 -44 75 l-39 75
-79 0 c-43 0 -79 -4 -79 -9z"/>
<path d="M6499 893 c-24 -6 -40 -48 -30 -75 5 -13 23 -35 40 -51 49 -43 33
-97 -25 -83 -19 5 -25 3 -22 -6 7 -20 63 -22 82 -3 28 29 20 77 -19 115 -19
19 -35 41 -35 51 0 21 26 43 40 34 5 -3 15 -3 21 1 8 4 7 9 -2 15 -15 9 -23
10 -50 2z"/>
<path d="M6973 885 c-36 -25 -31 -70 12 -108 37 -33 45 -66 20 -87 -8 -7 -24
-10 -35 -7 -13 3 -20 0 -20 -9 0 -21 57 -17 80 6 31 31 25 66 -20 110 -22 22
-40 44 -40 49 0 20 32 42 52 35 15 -4 19 -2 16 7 -7 20 -40 22 -65 4z"/>
<path d="M6600 775 c0 -70 4 -115 10 -115 6 0 10 38 10 93 l1 92 36 -92 c50
-129 63 -124 63 22 0 70 -4 115 -10 115 -6 0 -10 -36 -10 -87 0 -48 -4 -83 -8
-77 -5 5 -22 44 -38 87 -41 111 -54 102 -54 -38z"/>
<path d="M6760 775 c0 -70 4 -115 10 -115 6 0 10 45 10 115 0 70 -4 115 -10
115 -6 0 -10 -45 -10 -115z"/>
<path d="M6830 775 l0 -115 45 0 c52 0 61 17 13 22 -31 3 -33 6 -36 46 -3 41
-2 42 27 42 38 0 41 18 4 22 -25 3 -28 7 -28 43 0 38 2 40 35 46 33 6 32 6
-12 8 l-48 1 0 -115z"/>
<path d="M7147 883 c-14 -13 -6 -20 17 -16 17 4 27 -1 36 -16 14 -28 0 -74
-41 -130 -16 -23 -29 -45 -29 -51 0 -5 23 -10 50 -10 28 0 50 5 50 10 0 6 -16
10 -36 10 -36 0 -36 0 -20 23 55 76 70 141 40 171 -16 16 -55 22 -67 9z"/>
<path d="M7270 880 c0 -5 16 -10 35 -10 43 0 44 -5 5 -110 -32 -88 -35 -100
-21 -100 9 0 68 152 78 203 5 27 5 27 -46 27 -28 0 -51 -4 -51 -10z"/>
<path d="M7417 883 c-13 -12 -7 -22 8 -17 20 8 45 -13 45 -37 0 -11 -11 -24
-25 -31 -30 -14 -33 -28 -5 -28 28 0 46 -40 30 -70 -9 -17 -18 -21 -41 -18
-20 3 -29 0 -29 -9 0 -8 12 -13 34 -13 56 0 85 59 52 106 -10 13 -11 25 -5 35
13 20 11 63 -3 77 -13 13 -50 16 -61 5z"/>
<path d="M7573 878 c-13 -6 -23 -18 -23 -27 0 -12 3 -12 12 -3 24 24 28 10 28
-88 0 -60 4 -100 10 -100 6 0 10 45 10 115 0 63 -3 115 -7 114 -5 0 -18 -5
-30 -11z"/>
</g>
</svg>
